<svg xmlns="http://www.w3.org/2000/svg" viewBox="0 0 927.71 141.33"><defs><style>.cls-1{fill:#e59c5a;}</style></defs><g id="Capa_2" data-name="Capa 2"><g id="Capa_1-2" data-name="Capa 1"><path class="cls-1" d="M0,21C0,8,6.3,1.47,17.85,1.47h5.88C35.91,1.47,42.21,8,42.21,21V60.06L74.55,15.75C81.69,5,89.88,1.47,97.44,1.47c14.49,0,25.41,13.23,24.15,15.75L82.53,69.09l41,54.81c1.47,2.52-10.08,15.54-25.41,15.54-8,0-16-3.57-22.89-14.07l-33-44.52v39.06c0,12.81-6.3,19.53-18.48,19.53H17.85C6.3,139.44,0,132.72,0,119.91Z"/><path class="cls-1" d="M227.42,64.78v70.55c0,1.09-6.3,4-13.31,4s-14.58-2.52-18.54-11.51a19.13,19.13,0,0,1-1.08-3.78c-6.3,9.71-14.94,16.73-29.34,16.73-23,0-31.5-16.56-31.5-35.09V64.78c0-12.24,6.3-16.56,15.12-16.56h3.6c9.36,0,15.84,3.78,15.84,16.56V99.7c0,8.1,4.14,13,11.52,13a15.46,15.46,0,0,0,13.14-7V64.78c0-12.42,6.3-16.56,15.3-16.56h3.6C220.94,48.22,227.42,52,227.42,64.78Z"/><path class="cls-1" d="M320.09,91.75V125.2c0,10.34-5.25,13.94-12.75,13.94h-3c-7.65,0-13-3.3-13-13.94V96.7c0-6.6-3.45-10.8-9.45-10.8a12.76,12.76,0,0,0-11.09,5.85V125.2c0,10.49-5.4,13.94-12.75,13.94h-3c-7.8,0-13.05-3.3-13.05-13.94V66.55c0-1,5.1-3.3,11.1-3.3,7.5,0,14.1,3.75,16.35,13,5.25-8,12.75-13.8,24.44-13.8C313,62.5,320.09,76.45,320.09,91.75Z"/><path class="cls-1" d="M337.22,118.83V96.28h-1.56c-5.88,0-9-2.76-9-7.8V87.16c0-5.16,2.88-8.28,9-8.28h1.56V73.12c0-7.32,3.72-11,10.32-11h2c6.24,0,10.2,2.52,10.2,11v5.76h6.84c6.12,0,9,2.64,9,7.8V88c0,5.4-3.12,8.28-9.24,8.28h-7V116.2c0,4,1.56,6,5,6,3,0,4.92-1.56,6.48-3.72.84,0,5,3,5,8.52a11.22,11.22,0,0,1-3.24,8c-3,3.12-8.16,5-14.64,5C344.06,140.07,337.22,133,337.22,118.83Z"/><path class="cls-1" d="M420.8,62.5c22.65,0,38.4,15.6,38.4,37.05v1.35c-.15,4.35-1.35,6.9-5.85,6.9H406a8.6,8.6,0,0,0,.6,2.1c2.1,7,8.55,11.1,17.1,11.1,8.85,0,15-3.75,17.7-9,.15-.3,13.65.15,13.65,11.09,0,4.95-3,9.3-8.4,12.45-5.55,3.15-13.5,5-24,5-25.35,0-41.25-14.4-41.25-38.39C381.35,79.3,397.85,62.5,420.8,62.5ZM420.35,81c-7.65,0-13.35,5.7-14.1,13.5h27.3C433.1,85.9,428.3,81,420.35,81Z"/><path class="cls-1" d="M470.48,122.56V15.64c0-1.26,6.12-4,13.14-4C493.7,11.68,505,16.9,505,38v84.6c0,12.41-6.48,16.73-15.3,16.73h-3.6C477,139.29,470.48,135.33,470.48,122.56Z"/><path class="cls-1" d="M573.2,32.13C604.92,32.13,627,54,627,84v1.89c-.21,6.09-1.89,9.66-8.19,9.66H552.41a12,12,0,0,0,.84,2.94c2.94,9.87,12,15.54,23.94,15.54,12.39,0,21-5.25,24.79-12.6.21-.42,19.11.21,19.11,15.54,0,6.93-4.2,13-11.76,17.43-7.78,4.41-18.91,6.93-33.61,6.93-35.49,0-57.75-20.16-57.75-53.76C518,55.65,541.07,32.13,573.2,32.13ZM572.57,58c-10.71,0-18.69,8-19.74,18.9h38.22C590.42,64.89,583.7,58,572.57,58Z"/><path class="cls-1" d="M649.85,80.43,639.14,25.62C635.15,10.29,644,0,659.3,0h5.25c16.17,0,25,10.29,21,25.62L674.63,80.43c-2.1,8.4-5,12.6-10.5,12.6h-4.2C654.89,93,652.16,88.83,649.85,80.43Zm-7.35,42.63v-3.57c0-11.55,5.67-17,17.22-17h4.62c12.18,0,17.64,5.46,17.64,17v3.57c0,11.55-5.67,17-17.64,17h-4.62C648.17,140.07,642.5,134.61,642.5,123.06Z"/><path class="cls-1" d="M721.45,137.16V72c0-1.75.77-2.52,2.3-2.52h.77A2.21,2.21,0,0,1,727,72v63.4h34.43c1.75,0,2.63.76,2.63,2.29v.55c0,1.42-.88,2.3-2.63,2.3H724.62A3.17,3.17,0,0,1,721.45,137.16Z"/><path class="cls-1" d="M772,80.61c2.1,0,3.19,1.09,3.19,3.28,0,2-1.18,3.09-3.37,3.09a2.76,2.76,0,0,1-3-3.09C768.82,81.7,769.92,80.61,772,80.61Zm-2.28,18.67c0-1.64.82-2.09,1.92-2.09h.54c1.19,0,2,.45,2,2.09v39.44c0,1.64-.82,2.1-2,2.1h-.54c-1.1,0-1.92-.46-1.92-2.1Z"/><path class="cls-1" d="M779.74,133.91c0-1.58,1.9-2.13,2.06-2.13,2.29,3.55,6.55,6.32,13.18,6.32s10.66-3,10.66-7.19c0-5-4.66-6.08-11.53-7.58-6.08-1.26-13.26-2.76-13.26-10.1,0-6.4,5.6-10.82,14-10.82,5.85,0,9.87,1.9,12.08,4.11a4.44,4.44,0,0,1,1.42,2.76c0,1.5-1.89,2.21-2.05,2-1.89-3.15-6.16-5.6-11.45-5.6-6.47,0-10.26,2.92-10.26,7,0,4.73,4.34,5.84,11.13,7.34,6.4,1.34,13.74,2.92,13.74,10.34,0,6.47-5.61,11-14.61,11-6.55,0-11-2.05-13.26-4.34C780.22,135.65,779.74,134.7,779.74,133.91Z"/><path class="cls-1" d="M815.14,132.22V114.49h-3.52c-1.09,0-1.4-.49-1.4-1.21V113c0-.73.31-1.15,1.4-1.15h3.52v-5.59c0-1.09.55-1.46,1.28-1.46h.36c.79,0,1.28.37,1.28,1.46v5.59h8.26c1.09,0,1.45.42,1.45,1.15v.31c0,.72-.36,1.21-1.45,1.21h-8.26v17.43c0,4.68,1.45,6.68,4.73,6.68a5.44,5.44,0,0,0,4.68-2.49c.12-.12,1,.31,1,1.52a2.56,2.56,0,0,1-1,1.82,6.39,6.39,0,0,1-4.8,1.7C817.57,141.15,815.14,138.3,815.14,132.22Z"/><path class="cls-1" d="M848.48,102.41c10.26,0,17,7.34,17,18.24V121c0,1.11-.47,1.35-1.66,1.35H833.63v.94c.56,8.69,6.64,14.53,15.32,14.53,7.74,0,11.37-3.71,13.26-7.42a2.24,2.24,0,0,1,2.21,2.21c0,.79-.71,2.37-2.36,4-2.29,2.29-6.87,4.65-13.11,4.65-11.45,0-19.11-8.13-19.11-19.34S837.74,102.41,848.48,102.41Zm0,3.32c-7.74,0-13.5,5.6-14.69,13.42h27.79C861.27,111.18,856.06,105.73,848.48,105.73Z"/><path class="cls-1" d="M908.49,115.77v23c0,1.64-.82,2.1-2,2.1h-.55c-1.09,0-1.91-.46-1.91-2.1V116c0-9.47-4.65-15.3-13-15.3a15.91,15.91,0,0,0-15.12,9.93v28.05c0,1.64-.82,2.1-2,2.1h-.55c-1.09,0-1.91-.46-1.91-2.1V97.64a2.13,2.13,0,0,1,1.46-.45c1.54,0,2.91.82,2.91,4.37v3.92a17,17,0,0,1,15.39-8.93C902.66,96.55,908.49,104.2,908.49,115.77Z"/><path class="cls-1" d="M919.3,137.27v-.77c0-2.51,1.31-3.93,3.71-3.93h.88c2.51,0,3.82,1.42,3.82,3.93v.77a3.45,3.45,0,0,1-3.82,3.82H923C920.61,141.09,919.3,139.67,919.3,137.27Zm2.62-17.93-1.75-46.57c-.11-2.51.88-3.28,2.3-3.28h2c1.53,0,2.52.77,2.41,3.28l-1.75,46.57c-.11,1.42-.22,2.29-1.31,2.29h-.66C922.14,121.63,921.92,120.76,921.92,119.34Z"/></g></g></svg>