<svg xmlns="http://www.w3.org/2000/svg" viewBox="0 0 700.65 132.64"><defs><style>.cls-1{fill:#6b7da3;}</style></defs><g id="Capa_2" data-name="Capa 2"><g id="Capa_1-2" data-name="Capa 1"><path class="cls-1" d="M0,18.6C0,6.2,6,0,17,0h5.6C34.2,0,40.2,6.2,40.2,18.6V55.8L71,13.6C77.8,3.4,85.6,0,92.8,0c13.8,0,24.2,12.6,23,15L78.6,64.4l39,52.2c1.4,2.4-9.6,14.8-24.2,14.8-7.6,0-15.2-3.4-21.8-13.4L40.2,75.6v37.2c0,12.2-6,18.6-17.6,18.6H17c-11,0-17-6.4-17-18.6Z"/><path class="cls-1" d="M178.56,77.48h3.78a15.85,15.85,0,0,0-.36-3.06c-.9-7.2-5.58-10.62-13.5-10.62-11,0-15.66,5.22-17.82,10.62-.18.54-22.86,3.24-22.86-12.24a17.12,17.12,0,0,1,4.68-12.24c6.12-7,18.54-10.62,38-10.62,32,0,46.08,13.14,46.08,38.7v50c0,2-6.84,4-13.5,4-7.56,0-13.5-2.88-16.92-9a21.23,21.23,0,0,1-2.16-5.94C178.2,126.62,167,132.2,153.9,132.2c-18,0-29.52-10.08-29.52-25.56C124.38,87.38,143.82,77.66,178.56,77.48Zm3.78,14.58-4.86.18c-13.5.18-21.42,3.24-21.42,10.8,0,5.4,4.14,8.64,10.26,8.64,9.36,0,15.66-5.4,16-13.68Z"/><path class="cls-1" d="M238.06,104.32V74.24H236c-7.84,0-12-3.68-12-10.4V62.08c0-6.88,3.84-11,12-11h2.08V43.36c0-9.76,5-14.72,13.76-14.72h2.72c8.32,0,13.6,3.36,13.6,14.72V51h9.12c8.16,0,12,3.52,12,10.4V63.2c0,7.2-4.16,11-12.32,11h-9.28V100.8c0,5.28,2.08,8,6.72,8,4,0,6.56-2.08,8.64-5,1.12,0,6.72,4,6.72,11.36a15,15,0,0,1-4.32,10.72c-4,4.16-10.88,6.72-19.52,6.72C247.18,132.64,238.06,123.2,238.06,104.32Z"/><path class="cls-1" d="M294.54,116.12c0-6,5.88-10.36,6.44-9.8,4.76,4.34,13.16,8.12,22.4,8.12,5.46,0,8.4-1.54,8.4-4.34,0-3.36-4.34-4.2-11.06-5.74-8.68-1.82-24.5-4.76-24.5-21.7,0-14,11.2-23,30.66-23,14.84,0,24.08,3.36,27.58,9.38a11.5,11.5,0,0,1,1.82,6.44c0,6.3-6.72,10.92-7.14,10.5-5-4.9-13.16-8.82-20.3-8.82-5.18,0-8.12,1.68-8.12,4.62,0,3.22,4.76,3.78,11.9,5.46,8.82,2,25.34,5,25.34,21.56,0,14.56-11.2,23.1-32.48,23.1-11.06,0-19-1.68-24.08-4.62C296.64,124.66,294.54,120.88,294.54,116.12Z"/><path class="cls-1" d="M396.17,69.68c19.44,0,32.16,12.48,32.16,31.2s-12.84,31.2-32.52,31.2-32.16-12.24-32.16-31.32C363.65,82.16,376.61,69.68,396.17,69.68Zm-.12,17.52c-7.56,0-12.84,5.52-12.84,13.56s5.28,13.68,12.84,13.68c7.32,0,12.72-5.76,12.72-13.56C408.77,92.84,403.49,87.2,396.05,87.2Z"/><path class="cls-1" d="M441.77,97.28,435.65,66c-2.28-8.76,2.76-14.64,11.52-14.64h3c9.24,0,14.28,5.88,12,14.64l-6.24,31.32c-1.2,4.8-2.88,7.2-6,7.2h-2.4C444.65,104.48,443.09,102.08,441.77,97.28Zm-4.2,24.36v-2c0-6.6,3.24-9.72,9.84-9.72h2.64c7,0,10.08,3.12,10.08,9.72v2c0,6.6-3.24,9.72-10.08,9.72h-2.64C440.81,131.36,437.57,128.24,437.57,121.64Z"/><path class="cls-1" d="M525.86,124.43V61.53c0-1.69.74-2.43,2.22-2.43h.74a2.14,2.14,0,0,1,2.43,2.43v61.21h33.24c1.69,0,2.54.74,2.54,2.22v.52c0,1.38-.85,2.22-2.54,2.22H528.93A3.06,3.06,0,0,1,525.86,124.43Z"/><path class="cls-1" d="M592.15,82.38c13.13,0,22.52,10,22.52,23.27,0,13.14-9.39,23-22.52,23-13.32,0-22.71-9.95-22.71-23.18S578.83,82.38,592.15,82.38Zm0,4c-10.51,0-18.11,8.16-18.11,19s7.6,19.14,18.11,19.14c10.32,0,17.92-8.06,17.92-18.95S602.56,86.42,592.15,86.42Z"/><path class="cls-1" d="M637.38,88.05c11.49,0,19.7,8.7,19.7,20.36,0,11.49-8.21,20.11-19.7,20.11-11.66,0-19.87-8.7-19.87-20.28S625.72,88.05,637.38,88.05Zm0,3.53c-9.19,0-15.84,7.14-15.84,16.66S628.19,125,637.38,125c9,0,15.68-7.06,15.68-16.58S646.49,91.58,637.38,91.58Z"/><path class="cls-1" d="M661.77,80.35c0-.14.5-.35,1.13-.35,1.19,0,2.32.63,2.32,3.37v26.39l15.06-14.21a4.57,4.57,0,0,1,2.25-1.34,1.71,1.71,0,0,1,1.9,1.62L669,110l17.31,16.18a1.73,1.73,0,0,1-1.83,1.76,4.06,4.06,0,0,1-2.25-1.34l-17-16v15.76c0,1.27-.63,1.62-1.55,1.62h-.42c-.84,0-1.48-.35-1.48-1.62Z"/><path class="cls-1" d="M692.52,124.53v-.73c0-2.43,1.27-3.8,3.59-3.8H697c2.43,0,3.7,1.37,3.7,3.8v.73a3.34,3.34,0,0,1-3.7,3.7h-.84C693.79,128.23,692.52,126.86,692.52,124.53Zm2.53-17.3-1.68-45c-.11-2.42.84-3.16,2.21-3.16h1.9c1.48,0,2.43.74,2.32,3.16l-1.68,45c-.11,1.37-.22,2.21-1.27,2.21h-.63C695.27,109.44,695.05,108.6,695.05,107.23Z"/></g></g></svg>