<svg xmlns="http://www.w3.org/2000/svg" viewBox="0 0 664.23 131"><defs><style>.cls-1{fill:#e17154;}</style></defs><g id="Capa_2" data-name="Capa 2"><g id="Capa_1-2" data-name="Capa 1"><path class="cls-1" d="M8.63,129.56h2.94c5.89,0,8.93-3.45,8.93-9.42v-9.42h7.82c18.47,0,28.32-7.8,28.32-23.4s-10.25-23.8-28.93-23.8H10.46C3.76,63.52,0,67.57,0,74.86v45.28C0,126.32,3.15,129.56,8.63,129.56ZM27.51,95.83H20.2v-17h6.9c6.4,0,9.75,3,9.75,8.61C36.85,92.79,33.6,95.83,27.51,95.83Z"/><path class="cls-1" d="M64.06,93.22c0,24.69,12.56,37.22,37.43,37.22s37.43-12.66,37.43-37.34V58.28c0-8-3.8-11.77-11-11.77h-3.3c-7,0-11.16,3.79-11.16,11.77V93.35c0,10.25-3.68,15.06-11.8,15.06s-12.18-5.06-12.18-15.06V58.28c0-7.85-3.81-11.77-11-11.77H75.23c-7,0-11.17,3.92-11.17,11.77Z"/><path class="cls-1" d="M164.27,129.81h4.41c8.83,0,13.4-4.86,13.4-14.13V92.44h31.06v23.24c0,9.27,4.42,14.13,12.79,14.13h4.57c8.68,0,13.4-4.86,13.4-14.13V44.13c0-9.42-4.72-14.13-13.4-14.13h-4.57c-8.37,0-12.79,4.71-12.79,14.13V66.91H182.08V44.13c0-9.42-4.57-14.13-13.4-14.13h-4.41c-8.38,0-13,4.71-13,14.13v71.55C151.32,125,155.89,129.81,164.27,129.81Z"/><path class="cls-1" d="M258.6,78.89C258.6,113.45,276.19,131,311,131c34.63,0,52.4-17.72,52.4-52.29V30c0-11.16-5.33-16.48-15.46-16.48h-4.62c-9.76,0-15.63,5.32-15.63,16.48v49.1c0,14.35-5.15,21.09-16.52,21.09s-17.05-7.09-17.05-21.09V30c0-11-5.33-16.48-15.45-16.48h-4.45C264.46,13.49,258.6,19,258.6,30Z"/><path class="cls-1" d="M405.34,86.93h3.94c5.11,0,7.86-3.92,9.83-11.77l10.23-51.22C433.08,9.62,424.81,0,409.67,0h-4.92c-14.35,0-22.61,9.62-18.88,23.94l10,51.22C398.07,83,400.62,86.93,405.34,86.93Zm-.19,44h4.32c11.21,0,16.52-5.1,16.52-15.89v-3.34c0-10.79-5.11-15.9-16.52-15.9h-4.32c-10.82,0-16.13,5.11-16.13,15.9V115C389,125.79,394.33,130.89,405.15,130.89Z"/><path class="cls-1" d="M470.56,126c1.59,1.57,4.51,2.89,8.59,2.89,5.92,0,9.74-3.06,9.74-7.87,0-5.27-4.42-6.94-8.93-8-4-1-6.91-1.66-6.91-5,0-3,2.58-4.89,6.22-4.89a8.29,8.29,0,0,1,7.43,4,2.08,2.08,0,0,0,1.59-1.83,3.71,3.71,0,0,0-1.33-2.43,11.47,11.47,0,0,0-7.69-2.46c-5.4,0-9.35,3.14-9.35,7.65,0,5.32,4.2,6.73,8.45,7.79,3.91.94,7.34,1.79,7.34,5.32,0,3.15-2.53,5-6.61,5a9.1,9.1,0,0,1-8.32-4.59,2,2,0,0,0-1.55,1.78A4,4,0,0,0,470.56,126Z"/><path class="cls-1" d="M496.2,128.59h.54a1.64,1.64,0,0,0,1.77-1.81V115.45h6.76c8.58,0,13-3.83,13-10.8,0-6.81-4.61-10.64-12.82-10.64h-8.79a2.14,2.14,0,0,0-2.2,2.34v30.43A1.58,1.58,0,0,0,496.2,128.59Zm9.18-16.44h-6.87V97.41h6.92c5.79,0,8.8,2.56,8.8,7.34S511.22,112.15,505.38,112.15Z"/><path class="cls-1" d="M527.3,128.43h24.46c1.48,0,2.25-.71,2.25-2.05v-.32c0-1.27-.77-1.91-2.25-1.91H529.49V109.34h16.67c1.54,0,2.32-.64,2.32-2v-.25c0-1.22-.78-1.92-2.32-1.92H529.49V91.4h21.76c1.48,0,2.25-.63,2.25-2v-.32c0-1.28-.77-2-2.25-2h-24a2.58,2.58,0,0,0-2.64,2.81v35.74A2.53,2.53,0,0,0,527.3,128.43Z"/><path class="cls-1" d="M559.94,128.65c1.27.15,2.7-.37,3.38-2.53l5.18-13.18h20.13l5.1,13.1c.76,2.09,2.11,2.76,3.53,2.61,1.73-.08,3.08-1.19,2.93-1.64l-17.5-45.28c-.45-1.19-1.42-1.86-4.05-1.86s-3.61.67-4.06,1.86L557.16,127C557,127.38,558.29,128.57,559.94,128.65Zm10-20.33,8.63-22.64,8.57,22.64Z"/><path class="cls-1" d="M607.41,125.79c0,1.87.94,2.89,2.74,2.89H611a2.55,2.55,0,0,0,2.83-2.89V101.36L638.22,127a4.19,4.19,0,0,0,4,1.7c2.15-.25,3.35-2.13,3.09-2.89l-24.63-25.62L644.66,76a3,3,0,0,0-2.83-2.81c-1.29-.25-2.67.09-4.21,1.87L613.84,99.4V76c0-2-.94-2.89-2.83-2.89h-.86c-1.8,0-2.74.93-2.74,2.89Z"/><path class="cls-1" d="M659.21,111H660c1.26,0,1.55-.86,1.74-2.39l2.13-38.21c.28-3-1-4.4-3.19-4.4h-2.22c-2.13,0-3.38,1.44-3.09,4.4l2.22,38.11C657.67,110.14,658.05,111,659.21,111Zm-.1,18h1c2.8,0,4.15-1.53,4.15-4.31v-.86c0-2.78-1.35-4.31-4.15-4.31h-1c-2.8,0-4.15,1.53-4.15,4.31v.86C655,127.47,656.41,129,659.11,129Z"/></g></g></svg>